<?xml version="1.0" encoding="utf-8"?>
<!-- Generator: Adobe Illustrator 16.0.0, SVG Export Plug-In . SVG Version: 6.00 Build 0)  -->
<!DOCTYPE svg PUBLIC "-//W3C//DTD SVG 1.1//EN" "http://www.w3.org/Graphics/SVG/1.1/DTD/svg11.dtd">
<svg version="1.1" id="Capa_1" xmlns="http://www.w3.org/2000/svg" xmlns:xlink="http://www.w3.org/1999/xlink" x="0px" y="0px"
	 width="100px" height="100px" viewBox="0 0 100 100" enable-background="new 0 0 100 100" xml:space="preserve">
<circle fill="#FFFFFF" cx="50" cy="50" r="50"/>
<g>
	<path fill="#6E2383" d="M60.787,90.257l-0.21-0.056l-40.048-10.73L9.742,39.214l0.154-0.154L39.212,9.743l0.21,0.056l40.047,10.73
		l0.057,0.211l10.731,40.046l-0.154,0.154L60.787,90.257z M21.144,78.855l39.418,10.563l28.856-28.856L78.856,21.145L39.437,10.581
		L10.581,39.438L21.144,78.855z"/>
	<path fill="#6E2383" d="M72.125,31.145l0.926-3.456l0.03,0.029c-0.28-0.688-0.434-1.431-0.434-2.21c0-3.512,3.129-6.36,6.989-6.36
		s6.989,2.849,6.989,6.36c0,3.516-3.129,6.363-6.989,6.363c-2.047,0-3.889-0.803-5.167-2.079L72.125,31.145z"/>
	<path fill="#EF7B00" d="M54.504,43.278H30.563V29.869c0-5.444-4.412-9.854-9.855-9.854h-4.019v60.063h13.874V55.463h23.942v14.864
		c0,5.388,4.366,9.75,9.751,9.75h4.123V20.015H54.504V43.278z"/>
</g>
</svg>
