<?xml version="1.0" encoding="utf-8"?>
<!-- Generator: Adobe Illustrator 20.0.0, SVG Export Plug-In . SVG Version: 6.00 Build 0)  -->
<svg version="1.1" id="Capa_1" xmlns="http://www.w3.org/2000/svg" xmlns:xlink="http://www.w3.org/1999/xlink" x="0px" y="0px"
	 viewBox="0 0 328.7 455.1" style="enable-background:new 0 0 328.7 455.1;" xml:space="preserve">
<style type="text/css">
	.st0{fill:#C8D4E9;}
</style>
<g>
	<path class="st0" d="M0,42.6c0.7,0.6,1.4,1.2,2.1,1.8c15.6,15.6,31.4,31.2,46.9,47c23.5,24,47.6,47.5,71.1,71.5
		c22,22.5,44.6,44.5,66.6,67c23.8,24.4,48.3,48.2,72.1,72.6c12.5,12.8,25.2,25.3,37.8,38c1,1,1.4,1.7,0.5,3c-1.5,2.1-2.6,4.3-4,6.5
		c-1.6,2.4-1.6,2.4-3.6,0.4c-17.1-17.7-34.7-35-52.1-52.5c-7.2-7.2-14.4-14.3-21.5-21.5c-23.7-24.4-48.1-48-71.8-72.3
		c-22.7-23.2-45.9-45.8-68.5-69C52,111.2,28.2,87.8,4.7,64.1c-1.6-1.6-2.8-3.6-4.7-4.9C0,53.7,0,48.1,0,42.6z"/>
	<path class="st0" d="M0,92.4c2.7,2.2,4.8,5,7.3,7.4c22,22.1,44.3,44,66.1,66.3c23.2,23.6,46.9,46.8,70,70.5
		c22.5,23,45.5,45.4,67.9,68.4c21.3,21.8,42.9,43.1,64.4,64.7c1.2,1.2,1.7,2,0.3,3.4c-1.8,1.8-3.5,3.9-5.2,5.9c-1,1.2-1.7,1.2-2.9,0
		c-10.3-10.4-20.9-20.7-31.1-31.2c-14.2-14.7-28.8-28.9-43.2-43.5c-8.2-8.3-16.6-16.5-24.8-24.9c-23.4-24.1-47.6-47.5-71.1-71.5
		c-22.8-23.3-46.2-46.1-69-69.4c-9-9.2-18.2-18.3-27.2-27.5c-0.5-0.6-1.2-1-1.7-1.5C0,103.8,0,98.1,0,92.4z"/>
	<path class="st0" d="M0,142.6c2.1,2,4.2,4,6.3,6.1c7.2,7.2,14.5,14.4,21.6,21.7c23.2,23.9,47.1,47,70.3,70.8
		c22.7,23.2,46,45.9,68.7,69.1c23.2,23.7,46.9,46.9,70.2,70.6c4.9,5,9.7,9.9,14.6,14.8c1.1,1.1,0.9,1.6-0.1,2.5
		c-2.2,1.9-4.4,3.8-6.6,5.7c-0.7,0.6-1.2,0.6-1.9,0c-0.4-0.5-0.9-0.9-1.4-1.3c-16.5-16.5-33.1-32.9-49.4-49.6
		c-23.3-23.9-47.3-47.2-70.6-71.1c-22.5-23-45.5-45.4-67.9-68.4C36.6,196,19.1,178.8,1.9,161.3c-0.6-0.6-1.3-1.1-1.9-1.7
		C0,154,0,148.3,0,142.6z"/>
	<path class="st0" d="M0,192.9c0.6,0.6,1.3,1.1,1.9,1.7c16.7,16.7,33.5,33.3,50.1,50.2c23.1,23.6,46.7,46.6,69.8,70.2
		c22.2,22.7,45,44.9,67.2,67.6c11.3,11.6,22.8,23,34.2,34.4c1.2,1.3,1.5,2-0.2,3c-2.5,1.4-4.9,2.9-7.2,4.4c-1.2,0.8-1.8,0-2.5-0.7
		c-7-7-13.9-14-20.9-20.9c-15.1-15.1-30.3-30.1-45.2-45.4c-23.2-23.8-47.1-47-70.3-70.8c-22.2-22.7-44.8-44.9-67.1-67.4
		c-3.2-3.2-5.9-6.9-9.5-9.7C0,203.9,0,198.4,0,192.9z"/>
	<path class="st0" d="M0,242.7c3.7,3.3,6.9,7,10.3,10.4c21.7,21.8,43.5,43.3,65,65.2c23.2,23.7,47,46.9,70.2,70.6
		c14.9,15.3,30.1,30.2,45.1,45.4c1.3,1.4,1.4,2-0.4,2.7c-3,1.1-5.9,2.3-8.8,3.6c-1.1,0.5-1.6-0.1-2.2-0.7c-2.9-2.9-5.7-6-8.6-8.9
		c-22.5-22.7-45.3-45.1-67.7-68c-23.8-24.2-48.1-48-71.8-72.3c-9.7-9.9-19.6-19.7-29.3-29.6c-0.5-0.6-1.2-1-1.7-1.5
		C0,254,0,248.3,0,242.7z"/>
	<path class="st0" d="M0,292.9c1.2,1.2,2.5,2.3,3.7,3.5c8.8,8.8,17.7,17.4,26.3,26.4c23.1,23.8,46.9,46.8,70,70.5
		c17.5,18,35.5,35.5,53.1,53.4c0.5,0.5,1.5,0.9,1.2,1.8c-0.2,0.9-1.3,0.7-2,0.9c-3.2,0.7-6.5,1.2-9.7,2.1c-1.2,0.3-1.8-0.1-2.6-0.8
		c-4.9-5.1-9.9-10.1-14.9-15.2c-22.5-22.7-45.3-45.2-67.7-68c-18.4-18.7-37-37.2-55.5-55.8c-0.6-0.6-1.3-1.1-1.9-1.7
		C0,304.2,0,298.6,0,292.9z"/>
	<path class="st0" d="M0,343.1c0.6,0.6,1.3,1.1,1.9,1.7c17.5,17.5,35.1,34.8,52.3,52.4c18.3,18.8,37.1,37.1,55.5,55.8
		c0.5,0.5,1.4,0.9,1.1,1.6c-0.3,0.7-1.3,0.4-1.9,0.4c-4.1,0-8.2,0-12.3,0c-1.2,0-2.1-0.3-3-1.2c-27.9-28.6-56.3-56.6-84.4-85
		c-3-3.1-5.9-6.3-9.1-9.2C0,354.2,0,348.7,0,343.1z"/>
	<path class="st0" d="M0,392.9c3.3,3.1,6.5,6.3,9.6,9.6c2,2.1,4.1,4.2,6.2,6.3c13.2,13.3,26.5,26.6,39.8,39.9
		c0.5,0.5,1.1,1.1,2.1,2.2c-2.5-0.5-4.4-0.8-6.2-1.2c-4.2-1-8.5-2.1-12.7-3.2c-1.9-0.5-3.5-1.3-4.9-2.8
		c-10.7-10.8-21.4-21.5-32.1-32.2c-0.5-0.5-1.2-1-1.7-1.5C0,404.3,0,398.6,0,392.9z"/>
	<path class="st0" d="M21.4,14.5c1-0.1,1.5,0.5,1.9,1c2.3,2.4,4.4,4.8,6.7,7.1c21.1,21.1,42.4,42.1,63.3,63.4
		c23.7,24.2,48,47.9,71.7,72.1c22.8,23.3,46.2,46.1,69,69.4c23.4,23.9,47.2,47.3,70.7,71.1c2.7,2.8,5.4,5.7,8.1,8.4
		c0.8,0.8,0.9,1.6,0.5,2.7c-1.2,2.9-2.4,5.8-3.5,8.7c-0.6,1.4-1.1,1.3-2.1,0.3c-3.7-3.8-7.5-7.5-11.3-11.3
		c-12.2-12.2-24.5-24.3-36.5-36.6c-23.3-23.9-47.2-47.1-70.5-70.9c-22.9-23.4-46.4-46.3-69.3-69.7C97.2,106.6,73.5,83.6,50.5,60
		c-12.9-13.2-26-26.1-39-39.2c-1.2-1.2-1.4-1.8,0.4-2.5c2.7-0.9,5.2-2.1,7.9-3.2C20.4,14.8,21,14.7,21.4,14.5z"/>
	<path class="st0" d="M47.3,6.6c4.3-1.3,8.4-1.8,12.5-2.7c1.4-0.3,2.2,0.5,3.1,1.4c13.5,13.7,27,27.3,40.6,41
		c12,12,24.1,23.9,35.9,36c23.5,24.1,47.7,47.6,71.2,71.7c23.1,23.6,46.8,46.7,69.9,70.3c14.2,14.6,28.7,28.8,43,43.3
		c1.1,1.1,1.3,2.1,0.9,3.6c-0.9,3.4-1.5,6.9-2.2,10.3c-0.3,1.3-0.7,1.2-1.4,0.4c-5.9-6.1-12.1-11.7-17.7-18.1c-0.5-0.5-1-1-1.5-1.5
		c-22.1-22.1-44.3-44-66.1-66.3c-23.3-23.7-47.1-47-70.4-70.8c-22.5-23-45.6-45.5-68.1-68.5C81,40.3,64.6,24.2,48.5,7.9
		C48.2,7.5,47.8,7.2,47.3,6.6z"/>
	<path class="st0" d="M91.1,0.5c5.5-0.1,10.5-1,15.6-0.2c1,0.2,1.7,0.5,2.4,1.2c25.8,26.5,52.2,52.3,78.1,78.6
		c22.3,22.7,45.1,45,67.3,67.7c23.6,24.2,47.8,47.9,71.6,71.9c1.7,1.7,2.8,3.5,2.6,6.1c-0.3,3.4-0.1,6.8-0.1,10.2
		c0,0.8,0.4,1.8-0.4,2.2c-0.9,0.4-1.3-0.7-1.8-1.2c-15.3-15.3-30.7-30.5-45.8-45.9c-22.8-23.4-46.3-46.2-69.1-69.6
		c-23.1-23.7-46.9-46.8-70-70.5c-16.1-16.5-32.6-32.6-48.7-49C92.2,1.8,91.8,1.3,91.1,0.5z"/>
	<path class="st0" d="M144.9,4.7c7.1,1.2,14,2.7,20.7,4.7c0.8,0.2,1.3,0.8,1.9,1.3c21.7,21.7,43.5,43.2,64.9,65.1
		c22.4,22.9,45.3,45.3,67.8,68.2c6.1,6.2,12.2,12.4,18.3,18.6c0.4,0.4,0.9,0.9,1.1,1.5c1.9,6.3,3.4,12.7,4.6,19.1
		c0.1,0.4,0.2,0.8-0.4,1.4C264.2,124.7,204.6,64.7,144.9,4.7z"/>
</g>
</svg>
