<?xml version="1.0" encoding="utf-8"?>
<!-- Generator: Adobe Illustrator 20.0.0, SVG Export Plug-In . SVG Version: 6.00 Build 0)  -->
<svg version="1.1" id="Capa_1" xmlns="http://www.w3.org/2000/svg" xmlns:xlink="http://www.w3.org/1999/xlink" x="0px" y="0px"
	 viewBox="0 0 534 419.5" style="enable-background:new 0 0 534 419.5;" xml:space="preserve">
<style type="text/css">
	.st0{fill:#94AAD4;}
</style>
<g>
	<path class="st0" d="M9.9,228.5c5.6,0,9.7,4.2,9.6,9.8c0,5.3-4.4,9.7-9.7,9.7c-5.4,0-9.9-4.5-9.9-9.8C0,232.8,4.4,228.5,9.9,228.5z
		"/>
	<path class="st0" d="M19.5,123.9c0,5.6-4.2,9.7-9.8,9.7c-5.3,0-9.7-4.3-9.7-9.6c0-5.5,4.5-9.9,10-9.9
		C15.3,114.2,19.5,118.6,19.5,123.9z"/>
	<path class="st0" d="M114.4,238.2c0-5.6,4.2-9.7,9.8-9.7c5.4,0,9.8,4.4,9.7,9.9c0,5.3-4.7,9.7-10,9.6
		C118.7,248,114.4,243.6,114.4,238.2z"/>
	<path class="st0" d="M181.2,228.5c5.6,0,9.8,4.1,9.8,9.7c0,5.4-4.3,9.8-9.5,9.8c-5.4,0.1-10-4.3-10-9.6
		C171.4,233,175.8,228.6,181.2,228.5z"/>
	<path class="st0" d="M123.8,133.6c-5.4-0.1-9.4-4.5-9.3-10.1c0.1-5.1,4.6-9.4,9.7-9.4c5.5,0.1,9.9,4.6,9.8,10.1
		C133.8,129.5,129.3,133.7,123.8,133.6z"/>
	<path class="st0" d="M191,123.9c0,5.5-4.3,9.7-9.8,9.7c-5.4,0-9.8-4.4-9.8-9.8c0-5.2,4.5-9.7,9.7-9.7
		C186.6,114.1,191,118.4,191,123.9z"/>
	<path class="st0" d="M514.5,124c0-5.4,4.2-9.8,9.5-9.8c5.5-0.1,10.1,4.4,10,9.8c0,5.4-4.4,9.7-9.9,9.6
		C518.7,133.6,514.5,129.3,514.5,124z"/>
	<path class="st0" d="M67,133.6c-5.4,0-9.8-4.3-9.9-9.5c0-5.2,4.6-9.9,9.8-10c5.3-0.1,10.1,4.7,10,10
		C76.8,129.3,72.3,133.6,67,133.6z"/>
	<path class="st0" d="M419.6,66.8c0,5.4-4.3,9.8-9.6,9.8c-5.4,0-10-4.5-10-9.8c0-5.4,4.5-9.7,10-9.7
		C415.5,57.1,419.6,61.2,419.6,66.8z"/>
	<path class="st0" d="M362.5,66.9c0,5.4-4.5,9.7-9.9,9.7c-5.3-0.1-9.6-4.5-9.6-9.7c0-5.4,4.4-9.8,9.8-9.7
		C358.2,57.1,362.5,61.4,362.5,66.9z"/>
	<path class="st0" d="M295.6,57.1c5.4,0,9.8,4.3,9.9,9.5c0,5.5-4.5,10-10,9.9c-5.3-0.1-9.4-4.4-9.4-9.9
		C286,61.1,290.1,57.1,295.6,57.1z"/>
	<path class="st0" d="M352.6,133.6c-5.3,0-9.7-4.4-9.7-9.7c0-5.4,4.5-9.9,9.9-9.8c5.4,0,9.7,4.5,9.6,10
		C362.5,129.4,358.1,133.6,352.6,133.6z"/>
	<path class="st0" d="M191,295.5c0,5.3-4.4,9.6-9.7,9.6c-5.5,0-9.9-4.4-9.8-9.8c0-5.3,4.5-9.7,9.7-9.7
		C186.7,285.6,191,290,191,295.5z"/>
	<path class="st0" d="M514.5,238.3c0-5.6,4.2-9.8,9.8-9.8c5.3,0,9.7,4.3,9.7,9.6c0,5.4-4.4,9.8-9.9,9.8
		C518.9,248.1,514.5,243.6,514.5,238.3z"/>
	<path class="st0" d="M66.9,228.5c5.5,0,9.9,4.2,10,9.7c0.1,5.1-4.7,9.8-9.9,9.8c-5.2,0-9.9-4.7-9.9-9.9
		C57.1,232.9,61.5,228.6,66.9,228.5z"/>
	<path class="st0" d="M248.1,295.3c0,5.6-4,9.7-9.5,9.8c-5.5,0-10-4.3-10.1-9.7c-0.1-5.3,4.5-9.8,9.9-9.8
		C243.6,285.5,248.7,290.5,248.1,295.3z"/>
	<path class="st0" d="M114.4,295.3c0-5.5,4.4-9.8,9.9-9.7c5.2,0.1,9.7,4.5,9.6,9.8c0,5.4-4.4,9.7-10,9.7
		C118.7,305.1,114.4,300.7,114.4,295.3z"/>
	<path class="st0" d="M66.8,305.1c-5.4,0-9.9-4.6-9.8-9.9c0.1-5.1,4.8-9.6,9.9-9.6c5.2,0,10,4.8,9.9,9.9
		C76.8,300.8,72.3,305.1,66.8,305.1z"/>
	<path class="st0" d="M19.5,295.3c0,5.4-4.2,9.8-9.5,9.8c-5.6,0-10-4.2-10-9.6c0-5.4,4.5-9.9,9.8-9.9
		C15.2,285.6,19.5,290,19.5,295.3z"/>
	<path class="st0" d="M419.6,295.5c0,5.5-4.1,9.6-9.6,9.6c-5.5,0-9.9-4.4-9.9-9.8c0-5.2,4.5-9.6,9.8-9.7
		C415.3,285.5,419.6,290,419.6,295.5z"/>
	<path class="st0" d="M19.5,66.7c0,5.5-4.3,9.8-9.8,9.8c-5.3,0-9.7-4.5-9.7-9.7c0-5.4,4.4-9.8,9.9-9.8
		C15.2,57.1,19.5,61.4,19.5,66.7z"/>
	<path class="st0" d="M114.4,66.8c0-5.5,4.2-9.8,9.5-9.8c5.5,0,10,4.3,10,9.6c0,5.4-4.4,9.8-9.9,9.8
		C118.8,76.6,114.5,72.2,114.4,66.8z"/>
	<path class="st0" d="M191,66.8c0,5.3-4.3,9.7-9.7,9.7c-5.4,0-9.9-4.4-9.9-9.8c0-5.4,4.4-9.7,10-9.7C186.8,57.1,191,61.5,191,66.8z"
		/>
	<path class="st0" d="M514.5,66.7c0-5.3,4.3-9.6,9.7-9.6c5.5,0,9.9,4.4,9.8,9.8c0,5.3-4.5,9.7-9.7,9.7
		C518.8,76.6,514.4,72.2,514.5,66.7z"/>
	<path class="st0" d="M419.6,124.2c-0.1,5.4-4.3,9.4-9.9,9.4c-5.3-0.1-9.7-4.5-9.7-9.8c0-5.2,4.8-9.8,10-9.7
		C415.5,114.2,419.6,118.6,419.6,124.2z"/>
	<path class="st0" d="M248.1,66.8c0.6,4.9-4.5,9.8-9.6,9.7c-5.3,0-10-4.7-9.9-9.8c0.1-5.4,4.5-9.7,10-9.7
		C244.1,57.1,248.1,61.2,248.1,66.8z"/>
	<path class="st0" d="M295.6,133.6c-5.5,0.3-9.9-5.1-9.7-9.6c0.3-5.6,4.3-10,9.7-9.9c5.3,0,9.8,4.7,9.8,9.9
		C305.4,129.3,301,133.6,295.6,133.6z"/>
	<path class="st0" d="M362.5,295.3c0,5.5-4.3,9.8-9.8,9.8c-5.4,0-9.7-4.3-9.7-9.6c0-5.4,4.4-9.9,9.8-9.9
		C358.1,285.6,362.5,290,362.5,295.3z"/>
	<path class="st0" d="M248.1,124c0,5.5-4.1,9.6-9.6,9.6c-5.5,0-9.9-4.4-9.9-9.8c0-5.1,4.7-9.6,9.8-9.7
		C243.3,114,248.7,118.7,248.1,124z"/>
	<path class="st0" d="M286,295.2c0-5.4,4.4-9.7,9.7-9.6c5.4,0.1,9.8,4.5,9.8,10c0,5.2-4.5,9.5-9.9,9.5C290,305.1,286,301,286,295.2z
		"/>
	<path class="st0" d="M514.5,295.4c0-5.5,4.4-9.9,9.8-9.8c5.3,0,9.7,4.5,9.7,9.7c0,5.4-4.3,9.8-9.8,9.8
		C518.8,305.1,514.5,300.8,514.5,295.4z"/>
	<path class="st0" d="M76.9,9.5c0.1,5.2-4.7,9.9-9.9,9.9c-5.2,0-9.8-4.5-9.9-9.7C57,4.5,61.4,0,66.8,0C72.3,0,76.8,4.2,76.9,9.5z"/>
	<path class="st0" d="M419.6,238.1c0,5.5-4.3,10-9.7,9.9c-5.2,0-9.8-4.6-9.8-9.7c0-5.4,4.4-9.8,9.9-9.8
		C415.4,228.5,419.5,232.6,419.6,238.1z"/>
	<path class="st0" d="M295.7,228.5c5.4,0,9.8,4.4,9.8,9.6c0,5.3-4.6,9.8-9.9,9.9c-4.8,0.1-10-4.5-9.6-10.2
		C286.3,232.5,290.2,228.5,295.7,228.5z"/>
	<path class="st0" d="M352.7,0c5.7,0,9.8,4.1,9.8,9.7c0,5.3-4.3,9.7-9.7,9.8c-5.3,0.1-9.8-4.5-9.8-9.9C343,4.1,347.2,0,352.7,0z"/>
	<path class="st0" d="M67.1,57.1c5.3,0,9.7,4.4,9.8,9.7c0,5.1-4.8,9.9-10,9.8c-5.2-0.1-9.9-4.8-9.8-10.1
		C57.2,61.3,61.7,57,67.1,57.1z"/>
	<path class="st0" d="M466.8,133.6c-4.8,0.2-9.8-4.4-9.5-10c0.3-5.1,4.5-9.5,9.7-9.4c5.3,0,10,4.7,9.9,9.9
		C476.8,129.4,472.4,133.7,466.8,133.6z"/>
	<path class="st0" d="M457.4,295.4c0-5.5,4.3-9.8,9.8-9.8c5.1,0,9.7,4.7,9.7,9.8c0,5.4-4.5,9.8-10,9.7
		C461.5,305.1,457.4,300.9,457.4,295.4z"/>
	<path class="st0" d="M457.4,66.5c0-5.5,4.2-9.5,9.7-9.5c5.4,0,9.9,4.5,9.8,9.9c-0.1,5.1-4.8,9.6-9.9,9.6
		C461.6,76.5,457.4,72.1,457.4,66.5z"/>
	<path class="st0" d="M362.5,238.3c0,5.4-4.5,9.9-9.9,9.8c-5.3-0.1-9.6-4.5-9.6-9.8c0-5.4,4.4-9.7,9.9-9.7
		C358.2,228.6,362.5,232.9,362.5,238.3z"/>
	<path class="st0" d="M352.8,171.5c5.7,0,9.7,4.1,9.7,9.8c0,5.4-4.2,9.4-9.8,9.4c-5.7,0-9.8-4.2-9.7-9.8
		C343,175.4,347.2,171.5,352.8,171.5z"/>
	<path class="st0" d="M191,9.7c0,5.3-4.3,9.6-9.7,9.8c-5.2,0.1-9.9-4.6-9.9-9.8c0-5.3,4.4-9.6,9.7-9.6C187,0,191,4,191,9.7z"/>
	<path class="st0" d="M248.1,238.3c0.6,5-4.6,9.8-9.6,9.7c-5.2,0-10-4.8-9.9-9.9c0.1-5.4,4.5-9.7,10.1-9.6
		C244.1,228.6,248.1,232.7,248.1,238.3z"/>
	<path class="st0" d="M524.1,0c5.6,0,9.9,4.2,9.9,9.7c0,5.2-4.5,9.7-9.7,9.8c-5.4,0.1-9.8-4.4-9.8-9.8C514.5,4.1,518.5,0,524.1,0z"
		/>
	<path class="st0" d="M286,9.6c0-5.6,4-9.5,9.6-9.6c5.5,0,9.9,4.3,9.9,9.7c0,5.1-4.7,9.8-9.8,9.8C290.1,19.4,286,15.2,286,9.6z"/>
	<path class="st0" d="M66.9,190.7c-5.4,0-9.8-4.3-9.8-9.5c0-5.3,4.5-9.7,10-9.7c5.4,0,9.8,4.3,9.9,9.5
		C76.9,186.3,72.4,190.7,66.9,190.7z"/>
	<path class="st0" d="M457.4,238.1c0-5.5,4.2-9.5,9.7-9.5c5.4,0,9.9,4.5,9.8,9.8c0,5-4.8,9.6-9.9,9.7
		C461.7,248,457.4,243.6,457.4,238.1z"/>
	<path class="st0" d="M419.6,9.6c0,5.5-4.3,9.8-9.8,9.8c-5,0-9.7-4.6-9.7-9.5C400,4.4,404.4,0,410,0C415.6,0,419.6,4.1,419.6,9.6z"
		/>
	<path class="st0" d="M181.2,171.5c5.8,0,9.8,4,9.8,9.6c0,5.5-4,9.6-9.6,9.6c-5.6,0-9.9-4.2-9.9-9.6
		C171.5,175.6,175.7,171.5,181.2,171.5z"/>
	<path class="st0" d="M523.9,190.7c-5.5,0-9.5-4.2-9.5-9.7c0-5.6,4.2-9.5,10-9.5c5.4,0.1,9.6,4.2,9.5,9.7
		C534,186.7,529.7,190.7,523.9,190.7z"/>
	<path class="st0" d="M114.4,9.5c0-5.5,4.1-9.5,9.7-9.5c5.5,0,9.9,4.4,9.8,9.7c-0.1,5.1-4.8,9.8-9.8,9.7
		C118.7,19.3,114.4,15,114.4,9.5z"/>
	<path class="st0" d="M410,190.7c-5.5,0-9.9-4.3-9.9-9.6c0-5.2,4.4-9.5,9.8-9.5c5.7,0,9.7,4,9.7,9.6
		C419.6,186.6,415.5,190.6,410,190.7z"/>
	<path class="st0" d="M19.5,9.8c0,5.3-4.4,9.6-9.7,9.7c-5.2,0.1-9.9-4.7-9.8-10C0.1,4.2,4.5,0,9.9,0C15.5,0,19.6,4.1,19.5,9.8z"/>
	<path class="st0" d="M248.1,9.6c0,5.4-4.2,9.7-9.6,9.7c-5.3,0.1-10-4.5-10-9.8c0-5.3,4.5-9.6,10-9.6C244.1,0,248.1,4.1,248.1,9.6z"
		/>
	<path class="st0" d="M457.4,9.6c0-5.5,4-9.6,9.6-9.6c5.5,0,10,4.4,9.9,9.7c-0.1,5.1-4.7,9.8-9.8,9.8
		C461.6,19.4,457.4,15.1,457.4,9.6z"/>
	<path class="st0" d="M9.8,171.5c5.7,0,9.7,4,9.7,9.7c0,5.5-4.1,9.5-9.7,9.5c-5.5,0-9.9-4.4-9.9-9.7C0.1,175.8,4.5,171.5,9.8,171.5z
		"/>
	<path class="st0" d="M123.8,190.7c-5.6-0.1-9.5-4.3-9.4-10c0.1-5.4,4.3-9.2,10-9.1c5.2,0.1,9.6,4.5,9.5,9.8
		C133.9,186.6,129.4,190.7,123.8,190.7z"/>
	<path class="st0" d="M238.3,190.7c-5.3,0-9.7-4.4-9.7-9.6c0-5.3,4.5-9.6,10-9.6c5.6,0,9.6,4.1,9.5,9.8
		C248,186.8,244,190.7,238.3,190.7z"/>
	<path class="st0" d="M467,190.7c-5.5,0-9.5-4-9.5-9.6c0-5.7,4-9.6,9.8-9.6c5.3,0,9.7,4.4,9.7,9.6
		C476.9,186.4,472.5,190.7,467,190.7z"/>
	<path class="st0" d="M286,181c0-5.5,4-9.5,9.6-9.5c5.5,0,9.9,4.4,9.8,9.7c-0.1,5.2-4.5,9.5-9.8,9.5C289.9,190.7,286,186.7,286,181z
		"/>
	<path class="st0" d="M66.9,362.1c-5.4,0-9.8-4.3-9.8-9.5c0-5.1,4.6-9.8,9.6-9.9c5.4-0.1,10.2,4.6,10.2,9.8
		C76.9,357.8,72.4,362.2,66.9,362.1z"/>
	<path class="st0" d="M67,400c5.5,0,10,4.5,9.9,9.7c-0.1,5.2-4.7,9.7-10,9.8c-5.1,0.1-9.9-4.8-9.8-10C57.2,404.3,61.6,400,67,400z"
		/>
	<path class="st0" d="M181.4,400c5.6,0,9.7,4.1,9.7,9.9c0,5.3-4.5,9.6-9.8,9.6c-5.3,0-9.7-4.5-9.7-9.8
		C171.5,404.3,175.9,400,181.4,400z"/>
	<path class="st0" d="M352.8,362.1c-5.5,0-9.8-4.1-9.8-9.5c0-5.5,4.3-9.9,9.7-10c5.4-0.1,9.8,4.4,9.8,9.9
		C362.5,358.1,358.4,362.1,352.8,362.1z"/>
	<path class="st0" d="M514.5,409.7c0-5.6,4.1-9.7,9.8-9.7c5.3,0,9.7,4.3,9.7,9.6c0,5.3-4.3,9.7-9.6,9.8
		C519,419.6,514.5,415.1,514.5,409.7z"/>
	<path class="st0" d="M19.5,409.7c0,5.5-4.4,9.9-9.8,9.8c-5.1,0-9.7-4.7-9.7-9.8c0-5.3,4.3-9.7,9.7-9.7
		C15.4,400,19.5,404,19.5,409.7z"/>
	<path class="st0" d="M124.1,400c5.5,0,9.9,4.3,9.9,9.7c0,5.1-4.7,9.8-9.7,9.8c-5.4,0-9.8-4.3-9.8-9.6
		C114.4,404.2,118.4,400.1,124.1,400z"/>
	<path class="st0" d="M19.5,352.8c0,5.5-4.1,9.4-9.8,9.4c-5.3,0-9.7-4.4-9.7-9.6c0-5.2,4.5-9.7,9.7-9.8
		C15.2,342.6,19.6,347.1,19.5,352.8z"/>
	<path class="st0" d="M286,409.7c-0.7-4.6,4.1-9.9,9.7-9.7c5.3,0.2,9.7,4.4,9.7,9.7c0,5.1-4.6,9.8-9.7,9.8
		C290.2,419.5,286,415.3,286,409.7z"/>
	<path class="st0" d="M523.9,362.1c-5.5-0.1-9.5-4.2-9.4-9.8c0.1-5.3,4.5-9.7,9.8-9.6c5.3,0,9.8,4.6,9.7,10
		C534,358,529.5,362.2,523.9,362.1z"/>
	<path class="st0" d="M362.5,409.5c0,5.5-4.2,9.9-9.7,10c-5.2,0.1-9.8-4.4-9.8-9.6c-0.1-5.5,4.2-9.8,9.7-9.8
		C358.2,400,362.5,404.2,362.5,409.5z"/>
	<path class="st0" d="M419.6,352.8c0,5.5-4.1,9.4-9.8,9.4c-5.3,0-9.8-4.4-9.7-9.6c0-5.2,4.7-9.9,10-9.9
		C415.4,342.7,419.6,347.2,419.6,352.8z"/>
	<path class="st0" d="M286,352.6c0-5.6,4.2-9.8,9.7-9.9c5.1,0,9.7,4.6,9.8,9.8c0,5.3-4.4,9.7-9.9,9.7C290,362.1,286,358.2,286,352.6
		z"/>
	<path class="st0" d="M419.6,409.7c0,5.5-4.3,9.8-9.8,9.8c-5,0-9.8-4.8-9.8-9.8c0.1-5.3,4.4-9.7,9.7-9.7
		C415.5,400,419.6,404,419.6,409.7z"/>
	<path class="st0" d="M466.8,362.1c-5.6-0.1-9.4-4.2-9.4-10c0.1-5.1,4.6-9.5,9.7-9.4c5.2,0.1,9.8,4.8,9.8,9.8
		C476.9,358,472.4,362.2,466.8,362.1z"/>
	<path class="st0" d="M248.1,409.7c0.6,4.3-3.7,9.6-9.3,9.7c-5.4,0.2-10.2-4.5-10.2-9.9c0-5.2,4.5-9.6,9.8-9.6
		C244.1,400,248.1,404,248.1,409.7z"/>
	<path class="st0" d="M467.1,400c5.4,0,9.9,4.4,9.9,9.8c0,4.9-4.7,9.6-9.6,9.7c-5.4,0.1-9.9-4.2-9.9-9.7
		C457.4,404.1,461.4,400,467.1,400z"/>
	<path class="st0" d="M238.3,362.1c-5.3,0-9.8-4.4-9.7-9.6c0.1-5.1,4.7-9.8,9.8-9.8c5.7,0.1,9.8,4.3,9.8,10.1
		C248,358.3,243.9,362.2,238.3,362.1z"/>
	<path class="st0" d="M181.3,362.1c-5.4,0-9.8-4.2-9.9-9.4c0-5.3,4.5-10,9.7-10c5.4,0,9.8,4.4,9.8,9.9
		C191,358.1,186.9,362.1,181.3,362.1z"/>
	<path class="st0" d="M123.8,362.1c-5.6-0.1-9.5-4.2-9.4-10.1c0.1-5.1,4.5-9.4,9.8-9.4c5.2,0,9.8,4.8,9.8,10
		C133.9,358,129.4,362.2,123.8,362.1z"/>
</g>
</svg>
