<?xml version="1.0" encoding="utf-8"?>
<!-- Generator: Adobe Illustrator 20.0.0, SVG Export Plug-In . SVG Version: 6.00 Build 0)  -->
<svg version="1.1" id="Capa_1" xmlns="http://www.w3.org/2000/svg" xmlns:xlink="http://www.w3.org/1999/xlink" x="0px" y="0px"
	 viewBox="0 0 392.4 54.9" style="enable-background:new 0 0 392.4 54.9;" xml:space="preserve">
<style type="text/css">
	.st0{fill:#F27283;}
</style>
<g>
	<path class="st0" d="M11.6,0.9C19,1.1,25.4,3.8,31,8.7c4.4,3.9,7.7,8.6,10.9,13.4c2.5,3.7,4.9,7.4,7.8,10.8c1.9,2.1,4,4.1,6.7,5.3
		c5.3,2.4,12.1,1.7,17-2.8c3.4-3.1,5.9-6.8,8.5-10.6c2.9-4.2,5.7-8.5,9.1-12.4c3.6-4.1,7.8-7.5,12.9-9.5c4.9-1.9,10-2.5,15.2-1.8
		c7.9,1,14.1,5,19.3,10.8c4.2,4.7,7.5,10,11.1,15.2c2.3,3.2,4.6,6.4,7.7,8.9c5.9,4.8,14.3,4.7,20.1-0.3c3.6-3.2,6.3-7.1,8.9-11
		c3-4.4,6-8.9,9.6-12.9c4-4.4,8.7-8,14.5-9.6c10.4-2.9,19.9-1.1,28.3,5.7c4.6,3.8,8.1,8.6,11.4,13.5c2.7,3.9,5.2,8,8.4,11.6
		c2.5,2.8,5.3,5.2,9.1,6c5.4,1.2,10.3,0.1,14.4-3.7c3.6-3.2,6.2-7.1,8.9-11.1c2.9-4.3,5.8-8.7,9.4-12.6c5-5.4,10.8-9.3,18.2-10.4
		c9.4-1.5,17.8,0.8,25,7.1c4.4,3.8,7.8,8.6,11.1,13.4c2.5,3.7,4.9,7.4,7.8,10.8c2.4,2.8,5.1,5.2,8.7,6.3c1.8,0.6,3.7,0.6,5.6,0.8
		c3.4,0.4,6.2,3.4,6.3,6.8c0.1,3.8-2.4,7-6,7.5c-3.6,0.5-7.1-0.2-10.6-1.3c-5.9-1.9-10.5-5.5-14.6-10.1c-4-4.5-7.1-9.5-10.5-14.4
		c-2.3-3.3-4.6-6.4-7.7-9c-2.9-2.5-6.3-3.7-10.1-3.7c-4.8,0-8.7,2.1-12,5.5c-2.9,3-5.2,6.5-7.6,10c-2.9,4.2-5.7,8.5-9.1,12.2
		c-3.7,4-7.8,7.4-13,9.1c-10.1,3.4-19.5,2.2-28.2-4c-4.6-3.3-8.1-7.8-11.3-12.4c-2.8-4-5.4-8.2-8.5-12.1c-2.1-2.6-4.3-5-7.4-6.6
		c-5.6-3-13.1-2.2-18.2,2.8c-3,2.9-5.4,6.3-7.8,9.8c-3.3,4.9-6.5,9.8-10.6,14.1c-4.4,4.6-9.5,8.1-15.9,9.4
		c-9.7,2.1-18.5,0.1-26.2-6.3c-4.4-3.6-7.7-8.2-10.9-12.8c-2.6-3.7-5-7.6-7.9-11.1c-2.3-2.8-4.8-5.4-8.3-6.6
		c-5.9-2.1-11.4-1.2-16.2,3c-2.8,2.5-5,5.4-7.1,8.5c-3,4.3-5.8,8.7-9,12.8c-4.2,5.2-9,9.5-15.5,11.6c-10.6,3.5-20.4,1.8-29.1-5.2
		c-4.2-3.4-7.4-7.6-10.4-11.9c-2.9-4.1-5.4-8.3-8.6-12.2c-2.6-3.1-5.5-5.9-9.6-7.1c-1.5-0.4-3-0.6-4.6-0.6c-3.9-0.1-6.8-3-7-7.1
		C3.3,4.4,6.2,1.5,9.4,1C10.1,0.9,10.8,0.9,11.6,0.9z"/>
</g>
</svg>
